---
config:
  theme: default
  layout: elk
  elk:
    nodePlacementStrategy: SIMPLE
---
%% Generated by ODDToolkit
classDiagram

	%% http://www.w3.org/ns/adms#Identifier
	class ExterneIdentificator {
	  String uri
	  String datatype
	  String notatie
	  String schema
	}
	%% http://www.w3.org/ns/locn#Address
	class Adres {
	  String uri
	  String postcode
	  String stad
	  String straat
	}
	%% http://www.w3.org/ns/sosa/Result
	class Resultaat:::result {
	  String uri
	}
	%% https://data.riepr.omgeving.vlaanderen.be/ns/riepr#Aangifte
	class Aangifte {
	  +String vlaanderenId
	  String uri
	  Date aangemaaktOp
	  Aangifte onderdeelVan
	  String verantwoordelijke
	  String informatieclassificatie
	}
	%% http://purl.org/dc/terms/isPartOf
	Aangifte --> Aangifte : onderdeelVan
	%% https://data.riepr.omgeving.vlaanderen.be/ns/riepr#AbstractEmissiepunt
	class AbstractEmissiepunt:::system {
	}
	Emissiepunt <|-- AbstractEmissiepunt
	%% https://data.riepr.omgeving.vlaanderen.be/ns/riepr#Contactpersoon
	class Contactpersoon:::exploitant {
	  +String uuid
	  +Date geldigVan
	  +DateTime aangemaaktOp
	  String uri
	  Date geldigTot
	  DateTime aangepastOp
	  String beschrijving
	  String benaming
	  String functie
	  String email
	  String[] name
	  String telefoonnummer
	}
	%% https://data.riepr.omgeving.vlaanderen.be/ns/riepr#Emissiepunt
	class Emissiepunt:::system {
	  +String uuid
	  +Date geldigVan
	  +DateTime aangemaaktOp
	  String uri
	  Date geldigTot
	  DateTime aangepastOp
	  String type
	  String geometrie
	  String benaming
	  ExterneIdentificator[] identifier
	  Status status
	  Systeem revisieVan
	  SysteemEigenschap[] heeftEigenschap
	  Systeem[] heeftSubSysteem
	  Aangifte aangifte
	}
	%% http://www.w3.org/ns/adms#identifier
	Emissiepunt --> ExterneIdentificator : identifier
	%% http://www.w3.org/ns/adms#status
	Emissiepunt --> Status : status
	%% http://www.w3.org/ns/prov#wasRevisionOf
	Emissiepunt --> Systeem : revisieVan
	%% http://www.w3.org/ns/ssn/hasProperty
	Emissiepunt --> SysteemEigenschap : heeftEigenschap
	%% http://www.w3.org/ns/ssn/hasSubSystem
	Emissiepunt --> Systeem : heeftSubSysteem
	%% https://data.riepr.omgeving.vlaanderen.be/ns/riepr#aangifte
	Emissiepunt --> Aangifte : aangifte
	Systeem <|-- Emissiepunt
	%% https://data.riepr.omgeving.vlaanderen.be/ns/riepr#Exploitant
	class Exploitant:::exploitant {
	  +String uuid
	  +Date geldigVan
	  +DateTime aangemaaktOp
	  String uri
	  Date geldigTot
	  DateTime aangepastOp
	  String benaming
	  Adres adres
	  String classification
	  Contactpersoon[] heeftContactpersoon
	  Aangifte aangifte
	}
	%% http://www.w3.org/ns/locn#address
	Exploitant --> Adres : adres
	%% http://www.w3.org/ns/org#hasMember
	Exploitant --> Contactpersoon : heeftContactpersoon
	%% https://data.riepr.omgeving.vlaanderen.be/ns/riepr#aangifte
	Exploitant --> Aangifte : aangifte
	%% https://data.riepr.omgeving.vlaanderen.be/ns/riepr#Exploitatie
	class Exploitatie:::exploitant {
	  +String uuid
	  +Date geldigVan
	  +DateTime aangemaaktOp
	  String uri
	  Date geldigTot
	  DateTime aangepastOp
	  String benaming
	  ExterneIdentificator[] identifier
	  Status status
	  Contactpersoon[] heeftContactpersoon
	  Exploitatielocatie locatie
	  Systeem[] systemen
	  Proces implementeertProces
	  Aangifte aangifte
	}
	%% http://www.w3.org/ns/adms#identifier
	Exploitatie --> ExterneIdentificator : identifier
	%% http://www.w3.org/ns/adms#status
	Exploitatie --> Status : status
	%% http://www.w3.org/ns/org#hasMember
	Exploitatie --> Contactpersoon : heeftContactpersoon
	%% http://www.w3.org/ns/ssn/deployedOnPlatform
	Exploitatie --> Exploitatielocatie : locatie
	%% http://www.w3.org/ns/ssn/deployedSystem
	Exploitatie --> Systeem : systemen
	%% http://www.w3.org/ns/ssn/implements
	Exploitatie --> Proces : implementeertProces
	%% https://data.riepr.omgeving.vlaanderen.be/ns/riepr#aangifte
	Exploitatie --> Aangifte : aangifte
	%% https://data.riepr.omgeving.vlaanderen.be/ns/riepr#Exploitatielocatie
	class Exploitatielocatie {
	  +String uuid
	  +Date geldigVan
	  +DateTime aangemaaktOp
	  String uri
	  Date geldigTot
	  DateTime aangepastOp
	  String geometrie
	  String beschrijving
	  String benaming
	  ExterneIdentificator[] identifier
	  Adres adres
	  Site primaireBron
	  Exploitant toegewezenAan
	  String beinvloedDoor
	  Exploitatielocatie revisieVan
	  Aangifte aangifte
	}
	%% http://www.w3.org/ns/adms#identifier
	Exploitatielocatie --> ExterneIdentificator : identifier
	%% http://www.w3.org/ns/locn#address
	Exploitatielocatie --> Adres : adres
	%% http://www.w3.org/ns/prov#wasAttributedTo
	Exploitatielocatie --> Exploitant : toegewezenAan
	%% http://www.w3.org/ns/prov#wasRevisionOf
	Exploitatielocatie --> Exploitatielocatie : revisieVan
	%% https://data.riepr.omgeving.vlaanderen.be/ns/riepr#aangifte
	Exploitatielocatie --> Aangifte : aangifte
	%% https://data.riepr.omgeving.vlaanderen.be/ns/riepr#Filter
	class Filter:::system {
	  String uri
	  DateTime aangemaaktOp
	  Date geldigVan
	  Date geldigTot
	  DateTime aangepastOp
	  String type
	  String geometrie
	  String benaming
	  ExterneIdentificator[] identifier
	  Status status
	  Systeem revisieVan
	  Aangifte aangifte
	}
	%% http://www.w3.org/ns/adms#identifier
	Filter --> ExterneIdentificator : identifier
	%% http://www.w3.org/ns/adms#status
	Filter --> Status : status
	%% http://www.w3.org/ns/prov#wasRevisionOf
	Filter --> Systeem : revisieVan
	%% https://data.riepr.omgeving.vlaanderen.be/ns/riepr#aangifte
	Filter --> Aangifte : aangifte
	Systeem <|-- Filter
	%% https://data.riepr.omgeving.vlaanderen.be/ns/riepr#Installatie
	class Installatie:::system {
	  +String uuid
	  +Date geldigVan
	  +DateTime aangemaaktOp
	  String uri
	  Date geldigTot
	  DateTime aangepastOp
	  String type
	  String geometrie
	  String beschrijving
	  String benaming
	  ExterneIdentificator[] identifier
	  Status status
	  Systeem revisieVan
	  SysteemEigenschap[] heeftEigenschap
	  Systeem[] heeftSubSysteem
	  Aangifte aangifte
	  String[] ingediend
	}
	%% http://www.w3.org/ns/adms#identifier
	Installatie --> ExterneIdentificator : identifier
	%% http://www.w3.org/ns/adms#status
	Installatie --> Status : status
	%% http://www.w3.org/ns/prov#wasRevisionOf
	Installatie --> Systeem : revisieVan
	%% http://www.w3.org/ns/ssn/hasProperty
	Installatie --> SysteemEigenschap : heeftEigenschap
	%% http://www.w3.org/ns/ssn/hasSubSystem
	Installatie --> Systeem : heeftSubSysteem
	%% https://data.riepr.omgeving.vlaanderen.be/ns/riepr#aangifte
	Installatie --> Aangifte : aangifte
	Systeem <|-- Installatie
	%% https://data.riepr.omgeving.vlaanderen.be/ns/riepr#MeetInstrument
	class MeetInstrument:::system {
	  String uri
	  DateTime aangemaaktOp
	  Date geldigVan
	  Date geldigTot
	  DateTime aangepastOp
	  String type
	  String geometrie
	  String benaming
	  ExterneIdentificator[] identifier
	  Status status
	  Systeem revisieVan
	  Aangifte aangifte
	}
	%% http://www.w3.org/ns/adms#identifier
	MeetInstrument --> ExterneIdentificator : identifier
	%% http://www.w3.org/ns/adms#status
	MeetInstrument --> Status : status
	%% http://www.w3.org/ns/prov#wasRevisionOf
	MeetInstrument --> Systeem : revisieVan
	%% https://data.riepr.omgeving.vlaanderen.be/ns/riepr#aangifte
	MeetInstrument --> Aangifte : aangifte
	Systeem <|-- MeetInstrument
	%% https://data.riepr.omgeving.vlaanderen.be/ns/riepr#Meetpunt
	class Meetpunt:::system {
	  +String uuid
	  +Date geldigVan
	  +DateTime aangemaaktOp
	  String uri
	  Date geldigTot
	  DateTime aangepastOp
	  String type
	  String geometrie
	  String benaming
	  ExterneIdentificator[] identifier
	  Status status
	  Systeem revisieVan
	  SysteemEigenschap[] heeftEigenschap
	  MeetInstrument[] heeftSubSysteem
	  Aangifte aangifte
	}
	%% http://www.w3.org/ns/adms#identifier
	Meetpunt --> ExterneIdentificator : identifier
	%% http://www.w3.org/ns/adms#status
	Meetpunt --> Status : status
	%% http://www.w3.org/ns/prov#wasRevisionOf
	Meetpunt --> Systeem : revisieVan
	%% http://www.w3.org/ns/ssn/hasProperty
	Meetpunt --> SysteemEigenschap : heeftEigenschap
	%% http://www.w3.org/ns/ssn/hasSubSystem
	Meetpunt --> MeetInstrument : heeftSubSysteem
	%% https://data.riepr.omgeving.vlaanderen.be/ns/riepr#aangifte
	Meetpunt --> Aangifte : aangifte
	Systeem <|-- Meetpunt
	%% https://data.riepr.omgeving.vlaanderen.be/ns/riepr#Onttrekkingspunt
	class Onttrekkingspunt:::system {
	  +String uuid
	  +Date geldigVan
	  +DateTime aangemaaktOp
	  String uri
	  Date geldigTot
	  String depth
	  DateTime aangepastOp
	  String type
	  String geometrie
	  String benaming
	  ExterneIdentificator[] identifier
	  Status status
	  Systeem revisieVan
	  SysteemEigenschap[] heeftEigenschap
	  Filter[] heeftSubSysteem
	  Aangifte aangifte
	}
	%% http://www.w3.org/ns/adms#identifier
	Onttrekkingspunt --> ExterneIdentificator : identifier
	%% http://www.w3.org/ns/adms#status
	Onttrekkingspunt --> Status : status
	%% http://www.w3.org/ns/prov#wasRevisionOf
	Onttrekkingspunt --> Systeem : revisieVan
	%% http://www.w3.org/ns/ssn/hasProperty
	Onttrekkingspunt --> SysteemEigenschap : heeftEigenschap
	%% http://www.w3.org/ns/ssn/hasSubSystem
	Onttrekkingspunt --> Filter : heeftSubSysteem
	%% https://data.riepr.omgeving.vlaanderen.be/ns/riepr#aangifte
	Onttrekkingspunt --> Aangifte : aangifte
	Systeem <|-- Onttrekkingspunt
	%% https://data.riepr.omgeving.vlaanderen.be/ns/riepr#Proces
	class Proces:::procedure {
	  +String uuid
	  +Date geldigVan
	  +DateTime aangemaaktOp
	  String uri
	  Date geldigTot
	  DateTime aangepastOp
	  Procedure type
	  ProcesVariabele[] heeftInvoer
	  ProcesVariabele[] heeftUitvoer
	  Proces[] volgtOp
	  Proces onderdeelVan
	  String beschrijving
	  String benaming
	  Status status
	  Proces revisieVan
	  Systeem systeem
	  Aangifte aangifte
	  Rubriek[] rubriek
	}
	%% http://purl.org/dc/terms/type
	Proces --> Procedure : type
	%% http://purl.org/net/p-plan#hasInputVar
	Proces --> ProcesVariabele : heeftInvoer
	%% http://purl.org/net/p-plan#hasOutputVar
	Proces --> ProcesVariabele : heeftUitvoer
	%% http://purl.org/net/p-plan#isPrecededBy
	Proces --> Proces : volgtOp
	%% http://purl.org/net/p-plan#isStepOfPlan
	Proces --> Proces : onderdeelVan
	%% http://www.w3.org/ns/adms#status
	Proces --> Status : status
	%% http://www.w3.org/ns/prov#wasRevisionOf
	Proces --> Proces : revisieVan
	%% http://www.w3.org/ns/ssn/implementedBy
	Proces --> Systeem : systeem
	%% https://data.riepr.omgeving.vlaanderen.be/ns/riepr#aangifte
	Proces --> Aangifte : aangifte
	%% https://data.riepr.omgeving.vlaanderen.be/ns/riepr#rubriek
	Proces --> Rubriek : rubriek
	%% https://data.riepr.omgeving.vlaanderen.be/ns/riepr#ProcesVariabele
	class ProcesVariabele:::procedure {
	  +String uuid
	  String uri
	  String type
	  String eenheid
	  Decimal waarde
	  String benaming
	}
	%% https://data.riepr.omgeving.vlaanderen.be/ns/riepr#Rubriek
	class Rubriek {
	  String uri
	  String type
	  String definition
	  String datatype
	  String notatie
	}
	%% https://data.riepr.omgeving.vlaanderen.be/ns/riepr#SysteemEigenschap
	class SysteemEigenschap {
	  String uri
	  String type
	  String eenheid
	  String datatype
	  String range
	  String value
	  String parameter
	}
	%% https://data.riepr.omgeving.vlaanderen.be/ns/riepr#Transactie
	class Transactie {
	  String uri
	  DateTime einddatum
	  DateTime startdatum
	  Exploitant verantwoordelijke
	  Aangifte[] genereert
	}
	%% http://www.w3.org/ns/prov#wasAssociatedWith
	Transactie --> Exploitant : verantwoordelijke
	%% https://data.vlaanderen.be/ns/dossier#genereert
	Transactie --> Aangifte : genereert
	%% http://www.w3.org/ns/ssn/System
	class Systeem:::system {
	  String uri
	}
	%% http://www.w3.org/ns/ssn/System
	class Systeem:::system {
	  <<interface>>
	  String uri
	}
	%% http://www.w3.org/ns/adms#Status
	class Status {
	  <<enumerable>>
	  DEFINITIEF_UIT_DIENST
	  IN_GEBRUIK
	  ONTMANTELD
	  TIJDELIJK_UIT_DIENST
	  VOORGESTELD
	}
	%% http://www.w3.org/ns/sosa/Procedure
	class Procedure:::procedure {
	  <<enumerable>>
	  EMISSIE
	  MEET
	  ONTTREKKING
	  TRANSPORT
	  VERWERKING
	}
	classDef system fill:#4bde2a,stroke:#000000
	classDef procedure fill:#ccffcc,stroke:#000000
	classDef result fill:#ccccff,stroke:#000000
	classDef exploitant fill:#f6ff00,stroke:#000000
	